Coordinates
version=1
nRows=5
nColumns=114
inDegrees=yes

Units are S.I. units (second, meters, Newtons, ...)
If the header above contains a line with 'inDegrees', this indicates whether rotational values are in degrees (yes) or radians (no).

endheader 
time	pelvis_tilt	pelvis_list	pelvis_rotation	pelvis_tx	pelvis_ty	pelvis_tz	hip_flexion_l	hip_adduction_l	hip_rotation_l	hip_flexion_r	hip_adduction_r	hip_rotation_r	knee_angle_l	knee_angle_r	ankle_angle_l	ankle_angle_r	subtalar_angle_l	subtalar_angle_r	mtp_angle_l	mtp_angle_r	lumbar_extension	lumbar_bending	lumbar_rotation	arm_flex_l	arm_add_l	arm_rot_l	arm_flex_r	arm_add_r	arm_rot_r	elbow_flex_l	elbow_flex_r	pro_sup_l	pro_sup_r	addbrev_l/activation	addlong_l/activation	addmagDist_l/activation	addmagIsch_l/activation	addmagMid_l/activation	addmagProx_l/activation	bflh_l/activation	bfsh_l/activation	edl_l/activation	ehl_l/activation	fdl_l/activation	fhl_l/activation	gaslat_l/activation	gasmed_l/activation	glmax1_l/activation	glmax2_l/activation	glmax3_l/activation	glmed1_l/activation	glmed2_l/activation	glmed3_l/activation	glmin1_l/activation	glmin2_l/activation	glmin3_l/activation	grac_l/activation	iliacus_l/activation	perbrev_l/activation	perlong_l/activation	piri_l/activation	psoas_l/activation	recfem_l/activation	sart_l/activation	semimem_l/activation	semiten_l/activation	soleus_l/activation	tfl_l/activation	tibant_l/activation	tibpost_l/activation	vasint_l/activation	vaslat_l/activation	vasmed_l/activation	addbrev_r/activation	addlong_r/activation	addmagDist_r/activation	addmagIsch_r/activation	addmagMid_r/activation	addmagProx_r/activation	bflh_r/activation	bfsh_r/activation	edl_r/activation	ehl_r/activation	fdl_r/activation	fhl_r/activation	gaslat_r/activation	gasmed_r/activation	glmax1_r/activation	glmax2_r/activation	glmax3_r/activation	glmed1_r/activation	glmed2_r/activation	glmed3_r/activation	glmin1_r/activation	glmin2_r/activation	glmin3_r/activation	grac_r/activation	iliacus_r/activation	perbrev_r/activation	perlong_r/activation	piri_r/activation	psoas_r/activation	recfem_r/activation	sart_r/activation	semimem_r/activation	semiten_r/activation	soleus_r/activation	tfl_r/activation	tibant_r/activation	tibpost_r/activation	vasint_r/activation	vaslat_r/activation	vasmed_r/activation	
          6.72125853	          1.18837444	         -6.10400488	        382.19487059	         -0.22513609	          0.97186970	         -0.07463369	          9.63467748	          5.91003473	         13.55158127	         25.06542942	         -8.86031964	         -8.35530839	         35.84123101	         92.58644768	         25.31151877	         12.21820218	          7.85566396	        -28.22490625	        -18.15016703	          0.34518935	        -19.31980989	         -2.90999686	         -3.89158072	       -364.34042876	          1.86152990	         13.57673690	       -170.09469659	        190.62931201	       -173.45614254	         55.30966229	         42.57377463	         85.39634286	         96.01452487	          0.35875969	          0.04603063	          0.11980914	          0.05934809	          0.09083679	          0.14153118	          0.40336623	          0.02474383	          0.02442894	          0.08695814	          0.19513577	          0.35032613	          0.20131727	          0.14771637	          0.46382477	          0.52183265	          0.04323379	          0.23471045	          0.33877333	          0.47144164	          0.01984614	          0.16420732	          0.34842148	          0.02178757	          0.02392948	          0.33175154	          0.10792987	          0.55191798	          0.04462641	          0.42235352	          0.13286798	          0.34266701	          0.01003399	          0.39939734	          0.22577606	          0.18627180	          0.48680271	          0.35194887	          0.51416102	          0.13886032	          0.23129891	          0.29233489	          0.01001454	          0.01000888	          0.17840609	          0.23058556	          0.02088847	          0.11075763	          0.48058307	          0.38555728	          0.01750520	          0.01001328	          0.01000521	          0.01002435	          0.01002033	          0.01000954	          0.01000944	          0.01001011	          0.01001876	          0.01003351	          0.01850406	          0.01762312	          0.01015831	          0.16516798	          0.28382560	          0.61614964	          0.75754534	          0.61556944	          0.31843247	          0.26428800	          0.24163611	          0.13959894	          0.01000682	          0.13119392	          0.14892608	          0.36653794	          0.03040806	          0.23427486	          0.48177593	          0.28691912	
          6.73129254	          1.07078295	         -7.35356707	        385.07884765	         -0.17169687	          0.97325809	         -0.08944100	          5.59529427	          3.72012116	         13.59859483	         29.77119775	         -8.29775621	         -9.12096487	         35.07789295	         88.71971172	         26.08702954	          9.93226658	         10.18382607	        -32.75999273	        -20.82468956	          0.28949303	        -19.95772747	         -0.42167943	         -7.46391631	       -357.23640869	          2.73216552	         18.94371359	       -172.28890527	        192.15737298	       -181.74715792	         62.55463846	         45.59616905	         87.15092621	         95.30885410	          0.35539435	          0.56988698	          0.09977497	          0.04942484	          0.07564887	          0.11788983	          0.33591467	          0.64639607	          0.15662582	          0.16514967	          0.18812286	          0.31475904	          0.23752549	          0.12758970	          0.38625878	          0.43456538	          0.03600458	          0.19546122	          0.28212103	          0.39260228	          0.01653370	          0.13675053	          0.29015770	          0.67612521	          0.34363669	          0.27627387	          0.08988140	          0.45962064	          0.49971943	          0.35172219	          0.54559483	          0.38543717	          0.34150850	          0.33260622	          0.19029608	          0.21679821	          0.48210509	          0.29309153	          0.42817618	          0.11563835	          0.19261887	          0.24344725	          0.01007551	          0.01003628	          0.14857144	          0.19202740	          0.08265612	          0.09223975	          0.40022598	          0.32108324	          0.01458168	          0.01000387	          0.01002273	          0.04238253	          0.02497165	          0.02498118	          0.02495156	          0.01000631	          0.01012250	          0.03000293	          0.01541116	          0.01467908	          0.01443608	          0.13754854	          0.23636263	          0.51311071	          0.63085957	          0.72652490	          0.26518390	          0.22010857	          0.20123308	          0.11625426	          0.01001101	          0.10925541	          0.12402485	          0.30524061	          0.02532411	          0.19509783	          0.40120731	          0.23893769	
          6.74132656	          1.59394889	         -8.95441298	        388.15987267	         -0.11805459	          0.97502627	         -0.10593707	          1.08394093	          0.70576237	         11.48145701	         32.89470000	         -7.76107731	        -10.15069671	         34.81770750	         82.64641744	         25.97602627	          5.91333535	         11.92981551	        -34.69413217	        -22.80727766	          0.26060165	        -20.87400367	          3.01683589	        -10.64635172	       -350.06735254	          3.99900804	         22.19754750	       -175.14234176	        194.35280172	       -192.59231441	         68.99269943	         50.66737475	         88.49529822	         95.06652900	          0.29596189	          0.47458365	          0.08309039	          0.04116059	          0.06299901	          0.09817709	          0.27973943	          0.53829938	          0.13047855	          0.13753367	          0.28609821	          0.53562176	          0.51379118	          0.27269749	          0.32166462	          0.36189217	          0.02998412	          0.16278386	          0.23494415	          0.32694807	          0.01384469	          0.11389283	          0.24163863	          0.56305667	          0.35120103	          0.26170397	          0.07485099	          0.38275898	          0.41617708	          0.51789618	          0.45457605	          0.32098012	          0.28439967	          0.49969655	          0.29356925	          0.18054268	          0.79687485	          0.31650907	          0.39399233	          0.09629998	          0.16040747	          0.20273529	          0.01001255	          0.01001046	          0.12372611	          0.15991834	          0.26007524	          0.19338669	          0.33979894	          0.26738860	          0.04254428	          0.04005370	          0.09811238	          0.18029327	          0.02079806	          0.02080481	          0.02078072	          0.01000955	          0.01002987	          0.02498826	          0.01283613	          0.01222813	          0.01203854	          0.11455100	          0.19684040	          0.42730310	          0.52535975	          0.67319857	          0.25469301	          0.43606314	          0.48433503	          0.09681400	          0.01002090	          0.17084163	          0.10328707	          0.25419753	          0.07357678	          0.16247182	          0.33411221	          0.19897985	
          6.75136057	          2.16476685	        -11.04558529	        391.43437512	         -0.06453441	          0.97492114	         -0.12372423	         -3.76496241	         -3.22378900	          9.70590528	         35.30004667	         -7.37513972	        -11.51658877	         30.87325615	         75.19114591	         24.95199758	          0.77094319	         12.70444622	        -34.64540832	        -24.35820502	          0.30700504	        -21.27910947	          7.31049474	        -13.57976347	       -342.73006553	          5.57636823	         24.06319994	       -177.93645462	        197.22232849	       -203.63241541	         74.42794216	         56.71842605	         89.45614648	         94.88793545	          0.24646778	          0.39521770	          0.06919590	          0.03427835	          0.05246424	          0.08175980	          0.23295857	          0.44827941	          0.10866023	          0.13352983	          0.25064753	          0.44625926	          0.42788309	          0.22714296	          0.26787319	          0.30137250	          0.02497049	          0.14573690	          0.19565846	          0.27227416	          0.11338957	          0.09486915	          0.20123622	          0.46889569	          0.29247076	          0.21793860	          0.06233406	          0.31875207	          0.34658083	          0.43128817	          0.37856069	          0.26730241	          0.23683956	          0.41613321	          0.24448560	          0.22423012	          0.66376232	          0.26357883	          0.32810385	          0.08019615	          0.13358286	          0.16883168	          0.01199128	          0.01004909	          0.10303573	          0.13317945	          0.38653014	          0.54281004	          0.33156771	          0.22268397	          0.03546535	          0.03339811	          0.22925756	          0.15072583	          0.01732196	          0.01732663	          0.01730732	          0.01000426	          0.01001070	          0.02081156	          0.01069263	          0.01018803	          0.01004115	          0.09540154	          0.16392790	          0.35584479	          0.43750289	          0.61571033	          0.21213053	          0.77802514	          0.53090969	          0.08062528	          0.02083571	          0.16987282	          0.08602243	          0.25414087	          0.06129741	          0.13530212	          0.27823837	          0.16570448	
          6.76139459	          2.46631063	        -13.52844135	        394.84126638	         -0.01087787	          0.97239895	         -0.14228932	         -8.28133403	         -7.50429200	          8.51192365	         37.34637100	         -7.32061318	        -13.20622303	         25.02139945	         66.83735290	         22.55951415	         -4.45046396	         12.86296915	        -33.93115370	        -26.71314567	          0.35709836	        -20.73801707	         12.09450052	        -16.42653426	       -335.36791833	          6.96197947	         24.64348031	       -180.57844470	        200.27404371	       -214.23229288	         78.63065460	         62.59100537	         89.80397233	         94.15172215	          0.20525189	          0.32912524	          0.05762551	          0.02854726	          0.04369189	          0.06808957	          0.19400057	          0.37332040	          0.10722677	          0.11120112	          0.23013510	          0.43290005	          0.72085041	          0.74410026	          0.22307678	          0.25097344	          0.02079517	          0.12137133	          0.16294030	          0.22674249	          0.09444492	          0.07901066	          0.16758972	          0.39048322	          0.49839024	          0.18149403	          0.05191211	          0.26544806	          0.28871371	          0.35916302	          0.31527935	          0.22260189	          0.39845292	          0.77705206	          0.20360301	          0.18673151	          0.59751823	          0.21950014	          0.27323406	          0.06678506	          0.11124409	          0.14059782	          0.01001283	          0.01000713	          0.08580532	          0.11091066	          0.32189073	          0.84862759	          0.40638041	          0.24724157	          0.04332860	          0.04624587	          0.19092305	          0.12552096	          0.01442702	          0.01442999	          0.01441408	          0.01000431	          0.01001070	          0.01733365	          0.01000912	          0.01001494	          0.01003073	          0.07945031	          0.24987306	          0.32681228	          0.36433859	          0.63887535	          0.73915767	          0.92649597	          0.84469471	          0.06714270	          0.01735454	          0.14146690	          0.07164365	          0.29947829	          0.06824731	          0.11267602	          0.23170779	          0.13799375	
